inDegrees=no
num_controls=7
num_derivatives=13
num_iterations=112
num_multipliers=7
num_parameters=0
num_slacks=7
num_states=26
objective=0.445725
objective_accelerations=0.057484
objective_balance=0.003541
objective_effort=0.022952
objective_height=0.356206
objective_ligament=0.005542
solver_duration=1553.674088
status=Solve_Succeeded
success=true
DataType=double
version=3
OpenSimVersion=4.5
endheader
time	/jointset/ground_pelvis/pelvis_tilt/value	/jointset/ground_pelvis/pelvis_tx/value	/jointset/ground_pelvis/pelvis_ty/value	/jointset/hip_l/hip_flexion_l/value	/jointset/hip_l/hip_adduction_l/value	/jointset/hip_l/hip_rotation_l/value	/jointset/back/lumbar_extension/value	/jointset/patellofemoral_l/patellar_flexion_l/value	/jointset/knee_l/knee_flexion_l/value	/jointset/knee_l/knee_adduction_l/value	/jointset/knee_l/knee_rotation_l/value	/jointset/ankle_l/ankle_angle_l/value	/jointset/subtalar_l/subtalar_angle_l/value	/jointset/ground_pelvis/pelvis_tilt/speed	/jointset/ground_pelvis/pelvis_tx/speed	/jointset/ground_pelvis/pelvis_ty/speed	/jointset/hip_l/hip_flexion_l/speed	/jointset/hip_l/hip_adduction_l/speed	/jointset/hip_l/hip_rotation_l/speed	/jointset/back/lumbar_extension/speed	/jointset/patellofemoral_l/patellar_flexion_l/speed	/jointset/knee_l/knee_flexion_l/speed	/jointset/knee_l/knee_adduction_l/speed	/jointset/knee_l/knee_rotation_l/speed	/jointset/ankle_l/ankle_angle_l/speed	/jointset/subtalar_l/subtalar_angle_l/speed	/forceset/tau_hip_flexion_l	/forceset/tau_hip_adduction_l	/forceset/tau_hip_rotation_l	/forceset/tau_knee_flexion_l	/forceset/tau_ankle_angle_l	/forceset/tau_subtalar_angle_l	/forceset/tau_lumbar_extension	lambda_cid13_p0	lambda_cid13_p1	lambda_cid13_p2	lambda_cid13_p3	lambda_cid13_p4	lambda_cid13_p5	lambda_cid14_p0	/jointset/ground_pelvis/pelvis_tilt/accel	/jointset/ground_pelvis/pelvis_tx/accel	/jointset/ground_pelvis/pelvis_ty/accel	/jointset/hip_l/hip_flexion_l/accel	/jointset/hip_l/hip_adduction_l/accel	/jointset/hip_l/hip_rotation_l/accel	/jointset/back/lumbar_extension/accel	/jointset/patellofemoral_l/patellar_flexion_l/accel	/jointset/knee_l/knee_flexion_l/accel	/jointset/knee_l/knee_adduction_l/accel	/jointset/knee_l/knee_rotation_l/accel	/jointset/ankle_l/ankle_angle_l/accel	/jointset/subtalar_l/subtalar_angle_l/accel	gamma_cid13_p0	gamma_cid13_p1	gamma_cid13_p2	gamma_cid13_p3	gamma_cid13_p4	gamma_cid13_p5	gamma_cid14_p0
1.5	-0.3682248753122979	-0.02398558557620032	0.7623041448958937	1.105576741899236	-0.432212693625935	-0.2167240823114569	-0.2247979934113668	0.8016537746755209	0.801653774675521	-0.1241039289847847	-0.1458289257723167	0.1270973633767279	-0.01654672284628203	0.679735498719108	0.2722196399957402	0.5304363876235415	-2.449301079379602	0.207266811041571	-0.6943191431013614	0.315058499885736	-2.003786623170596	-2.003786623170597	-0.1477348945991277	0.1362995831378931	-0.3979265486227889	0.03321937491375037	-0.1740610018577794	0.02810130139272334	-0.009157498643477143	-0.2050468859506503	0.04645802019390659	0.04312557754220956	0.1681226175051225	-17.21049087027431	-18.64642833552564	5.984080495745073	-8.852676505494347	-520.561525528452	-61.26406512144426	-25.08473842260263	0.6973960907449849	0.7357462507237984	-0.5078936235427958	-1.376816059679731	0.6457759896808354	-0.08510839303014067	1.461167717717164	-1.293875730292565	-1.293875730292561	-0.007439580915087507	0.2979851214569916	-0.4372666653823404	0.4724201337167184	5.253441532028769e-07	1.124044837870334e-07	-3.41138847747288e-06	-2.249817349714942e-07	7.684707425194462e-07	-7.245796117439666e-08	4.621398483301775e-07
1.51	-0.3613928081268707	-0.02122705417588771	0.7675820664645948	1.081016650113472	-0.4301093919454358	-0.2236675912494028	-0.2215757941604921	0.7815529544041024	0.7815529544041026	-0.1255868098393797	-0.1444502139854666	0.1230959124794684	-0.01619319025070598	0.6865738221474511	0.2794329991391689	0.525035762562281	-2.462368716633689	0.2133711327721443	-0.6943090373295094	0.3293259033513325	-2.016132691536684	-2.016132691536685	-0.1488250449391359	0.1394314979699106	-0.4023373494557256	0.03746788926488667	-0.1682184747750881	0.02778860351982397	-0.008800757196433098	-0.2016159886145463	0.04545344102203072	0.04229349604056091	0.1632968520392765	-17.3273093742169	-18.26506751050295	5.923812569053848	-8.255662657589943	-516.5814860505089	-61.26912834420249	-25.99389457924977	0.6615108544463728	0.7060357245052518	-0.5728056635215276	-1.219359217793611	0.5898473827047777	0.05556932440584966	1.401209620299478	-1.168354486687736	-1.168354486687603	-0.1575041827292271	0.3184093606426548	-0.4390796193974396	0.3985850409065085	5.418847857677795e-07	8.010764719512777e-08	-3.503591545947421e-06	-2.37806056992864e-07	8.084763468316212e-07	1.317355844431683e-08	4.641377165109993e-07
1.52	-0.3544954656300467	-0.01839800818847024	0.7728026500394627	1.056336357623263	-0.4279456296240391	-0.2306086992772075	-0.2182125842830976	0.7613359970296388	0.7613359970296387	-0.127080132481812	-0.1430406601109825	0.11905113500845	-0.01579766892059969	0.6927905609984893	0.2863225574167114	0.5189687888568666	-2.473341220268591	0.2193589392210856	-0.693838961073139	0.3432606251896728	-2.027014043779604	-2.027014043779603	-0.1498232521665658	0.1424680006646687	-0.4065918633745855	0.0416171218197999	-0.1623759476923967	0.02747590564692465	-0.008444015749389923	-0.1981850912784446	0.04444886185015487	0.04146141453891234	0.1584710865734304	-17.44671868545275	-17.88566653909481	5.866616166265577	-7.708008346901492	-512.667507295287	-61.33899911758245	-26.9024025259675	0.5730791752839989	0.6709860775465376	-0.6411633523735738	-0.957789335842513	0.6224729333544354	0.006885703873468083	1.394631392265936	-1.000932505658913	-1.000932505658913	0.01094904160056809	0.2789026940050882	-0.4060092825668999	0.4525637744721044	4.839384399547215e-07	4.841400008999827e-07	-2.77892035624132e-06	-1.03383755916732e-07	7.328111121172925e-07	1.047182138801682e-07	4.265210454421896e-07
1.53	-0.3475391775101038	-0.01550149718783865	0.7779592907390341	1.031556964046126	-0.425722221228021	-0.2375481701633742	-0.2147114503133132	0.7410184537049386	0.7410184537049386	-0.1285786463632068	-0.141605074241717	0.1149653927207584	-0.01536019860370948	0.6983506417460865	0.2929442779929743	0.5122522484163214	-2.482180934430711	0.2252989305894902	-0.6940216073887526	0.3569387962280291	-2.036190865966291	-2.036190865966291	-0.1498256765328743	0.1445877853750359	-0.4104655299338663	0.04589323423334201	-0.1561896282017183	0.02620904636947385	-0.008126811195537707	-0.1958479620115867	0.04505880626644961	0.04068390940905024	0.1534643654544629	-17.0528925128317	-17.62187659012537	5.830185724710104	-7.726325096022803	-508.9337737785955	-61.59217803654121	-27.81047437671184	0.5299925836677404	0.6525289816414065	-0.7028791974890908	-0.7935907368578223	0.5759984725929823	-0.02553455795438166	1.350304078741932	-0.8305546245387523	-0.830554624538816	0.002540359507921627	0.1691879466231223	-0.3643123452979916	0.4173266790574022	3.468496796150811e-07	1.351772119295141e-06	-1.186320267218294e-06	1.87488082200494e-07	5.342456109373049e-07	2.025455761217284e-07	3.46813926420647e-07
1.54	-0.3405307845708511	-0.01253981619464939	0.7830455700726815	1.006699867671275	-0.4234401656715169	-0.2444884064644321	-0.2110743558093209	0.7206182426484984	0.7206182426484983	-0.1300755087812139	-0.1401501562079338	0.1108436603669362	-0.01487952882183143	0.7032115248604898	0.2993565559282469	0.5048965156720123	-2.488881779811275	0.2310883713182754	-0.6939920440513907	0.370452732031243	-2.043547590127586	-2.043547590127586	-0.1494929594890033	0.1463344335682267	-0.4137898766007194	0.05025701481736967	-0.1500033087110399	0.02494218709202309	-0.007809606641685514	-0.1935108327447287	0.04566875068274437	0.03990640427918821	0.1484576443354955	-16.66045791673491	-17.35953330458912	5.795916624397999	-7.770949623449176	-505.2369159912583	-61.87355372268348	-28.71897005493605	0.4332396486451969	0.6290975493484808	-0.7690018131263586	-0.5300155795315606	0.5923628054305554	0.04932763446854963	1.361784345237451	-0.6369129005806102	-0.6369129005806066	0.07797732363649218	0.2042753905698051	-0.2961453040812855	0.4700974085692134	3.078241538034129e-07	1.74256273729667e-06	-6.282533019728685e-07	3.07132934991685e-07	4.862501933948845e-07	2.834143519625533e-07	3.281263611452775e-07
